<?xml version="1.0" encoding="utf-8"?>
<!-- Generator: Adobe Illustrator 16.0.0, SVG Export Plug-In . SVG Version: 6.00 Build 0)  -->
<!DOCTYPE svg PUBLIC "-//W3C//DTD SVG 1.1//EN" "http://www.w3.org/Graphics/SVG/1.1/DTD/svg11.dtd">
<svg version="1.1" id="Layer_1" xmlns="http://www.w3.org/2000/svg" xmlns:xlink="http://www.w3.org/1999/xlink" x="0px" y="0px"
	 width="81px" height="72px" viewBox="32.5 29 81 72" enable-background="new 32.5 29 81 72" xml:space="preserve">
<g>
	<circle cx="71.516" cy="51.874" r="4.133"/>
	<circle cx="54.273" cy="51.875" r="1.609"/>
	<circle cx="88.84" cy="51.875" r="1.609"/>
	<path fill="none" d="M88.814,56.007c1.386,0,2.612-0.687,3.362-1.736l-7.413-3.223c-0.054,0.267-0.083,0.543-0.083,0.825
		C84.68,54.156,86.531,56.007,88.814,56.007z"/>
	<path fill="none" d="M92.947,51.874c0-2.282-1.851-4.133-4.132-4.133c-2,0-3.669,1.421-4.051,3.308l7.413,3.223
		C92.659,53.595,92.947,52.768,92.947,51.874z"/>
	<circle fill="none" cx="54.289" cy="51.874" r="4.133"/>
	<path fill="#1D1D1B" d="M62.972,51.874c0-3.609,2.235-6.693,5.396-7.951l-10.93-4.752h-0.304c-6.61,0-11.968,5.359-11.968,11.968
		c0,4.927,2.977,9.155,7.23,10.989l11.139-7.198C63.173,53.981,62.972,52.951,62.972,51.874z M54.289,56.007
		c-2.282,0-4.133-1.851-4.133-4.133s1.851-4.133,4.133-4.133s4.133,1.851,4.133,4.133S56.57,56.007,54.289,56.007z"/>
	<path fill="#00A099" d="M71.529,43.315c2.374,0,4.521,0.968,6.072,2.527l10.118-6.537c-0.586-0.089-1.184-0.135-1.793-0.135H57.438
		l10.93,4.752C69.345,43.532,70.412,43.315,71.529,43.315z"/>
	<path fill="#D60B51" d="M88.814,56.007c-2.284,0-4.134-1.851-4.134-4.133c0-0.282,0.03-0.559,0.083-0.825l-5.261-2.286
		c0.377,0.964,0.586,2.013,0.586,3.111c0,4.727-3.832,8.559-8.559,8.559c-3.647,0-6.761-2.285-7.994-5.502l-11.139,7.198
		c1.174,0.507,2.444,0.831,3.777,0.937c0.547,0.152,0.951,0.649,0.951,1.245v0.167v19.128c0,1.02,0.826,1.846,1.847,1.846
		s1.848-0.826,1.848-1.846V71.347v-0.788v-1.005c0-0.715,0.58-1.297,1.296-1.297c0.716,0,1.297,0.582,1.297,1.297l-0.008,0.923
		v17.917c0,1.021,0.826,1.847,1.847,1.847c1.02,0,1.847-0.826,1.847-1.847V69.108v-0.629c0-0.716,0.58-1.297,1.296-1.297
		c0.715,0,1.296,0.582,1.296,1.297l-0.007,0.982v23.856c0,1.02,0.828,1.847,1.848,1.847s1.847-0.827,1.847-1.847V69.461
		l-0.007-1.631c0-0.716,0.581-1.296,1.297-1.296c0.715,0,1.296,0.58,1.296,1.296v0.443v16.735c0,1.02,0.827,1.847,1.847,1.847
		s1.847-0.827,1.847-1.847V70.252v-0.771c0-0.716,0.582-1.296,1.296-1.296c0.717,0,1.297,0.58,1.297,1.296l-0.009,1.473v10.002
		c0,1.02,0.826,1.848,1.847,1.848s1.848-0.828,1.848-1.848V64.823v-0.419c0-0.716,0.581-1.297,1.295-1.297l-1.167-0.003
		c4.719-0.053,8.781-2.837,10.682-6.845l-4.57-1.987C91.427,55.32,90.2,56.007,88.814,56.007z"/>
	<path fill="#F8B133" d="M87.72,39.306l-10.118,6.537c0.819,0.825,1.469,1.816,1.901,2.92l5.261,2.286
		c0.382-1.887,2.05-3.308,4.051-3.308c2.282,0,4.132,1.851,4.132,4.133c0,0.894-0.288,1.721-0.771,2.397l4.57,1.987
		c0.736-1.552,1.147-3.287,1.147-5.12C97.894,45.14,93.478,40.171,87.72,39.306z"/>
</g>
<g>
	<g>
		<path fill="#D60B51" d="M790.514,66.812h-4.754l-1.25,3.627h-1.823l4.539-12.617h1.858l4.539,12.617h-1.841L790.514,66.812z
			 M788.137,59.557c0,0-0.286,1.144-0.5,1.786l-1.411,4.003h3.823l-1.394-4.003c-0.215-0.643-0.482-1.786-0.482-1.786H788.137z"/>
		<path fill="#D60B51" d="M795.125,61.396h1.68v1.573c0,0.375-0.036,0.679-0.036,0.679h0.036c0.411-1.322,1.466-2.359,2.859-2.359
			c0.231,0,0.446,0.036,0.446,0.036v1.716c0,0-0.231-0.054-0.5-0.054c-1.107,0-2.127,0.786-2.537,2.126
			c-0.161,0.518-0.215,1.072-0.215,1.626v3.699h-1.733V61.396z"/>
		<path fill="#D60B51" d="M802.202,62.916h-1.18v-1.394h1.232v-2.608h1.68v2.608h2.182v1.394h-2.182v4.021
			c0,1.805,1.271,2.037,1.932,2.037c0.25,0,0.41-0.036,0.41-0.036v1.537c0,0-0.25,0.036-0.607,0.036
			c-1.161,0-3.467-0.358-3.467-3.378V62.916z"/>
		<path fill="#D60B51" d="M807.171,61.396h1.841l1.876,6.344c0.144,0.465,0.215,0.966,0.232,0.966h0.035c0,0,0.09-0.501,0.231-0.966
			l1.966-6.326h1.592l1.947,6.326c0.144,0.465,0.25,0.966,0.25,0.966h0.035c0,0,0.071-0.501,0.215-0.966l1.895-6.344h1.822
			l-2.912,9.042h-1.912l-1.876-5.808c-0.144-0.465-0.25-0.983-0.25-0.983h-0.036c0,0-0.106,0.518-0.25,0.983l-1.858,5.808h-1.93
			L807.171,61.396z"/>
		<path fill="#D60B51" d="M826.99,61.183c2.698,0,4.879,1.983,4.879,4.718c0,2.751-2.181,4.753-4.879,4.753
			s-4.878-2.001-4.878-4.753C822.112,63.166,824.292,61.183,826.99,61.183z M826.99,69.152c1.716,0,3.108-1.358,3.108-3.252
			c0-1.877-1.394-3.217-3.108-3.217c-1.698,0-3.109,1.34-3.109,3.217C823.881,67.794,825.292,69.152,826.99,69.152z"/>
		<path fill="#D60B51" d="M833.925,61.396h1.68v1.573c0,0.375-0.034,0.679-0.034,0.679h0.034c0.412-1.322,1.467-2.359,2.86-2.359
			c0.231,0,0.446,0.036,0.446,0.036v1.716c0,0-0.232-0.054-0.501-0.054c-1.107,0-2.126,0.786-2.537,2.126
			c-0.161,0.518-0.214,1.072-0.214,1.626v3.699h-1.734V61.396z"/>
		<path fill="#D60B51" d="M840.627,57.822h1.733v6.897h1.27l2.466-3.324h1.966l-3.002,3.985v0.036l3.342,5.021h-2.021l-2.716-4.253
			h-1.305v4.253h-1.733V57.822z"/>
	</g>
	<path fill="#00A099" d="M875.012,66.812h-4.753l-1.251,3.627h-1.821l4.537-12.617h1.859l4.539,12.617h-1.841L875.012,66.812z
		 M872.636,59.557c0,0-0.285,1.144-0.501,1.786l-1.411,4.003h3.824l-1.394-4.003c-0.216-0.643-0.482-1.786-0.482-1.786H872.636z"/>
	<path fill="#00A099" d="M879.624,61.396h1.68v1.573c0,0.375-0.035,0.679-0.035,0.679h0.035c0.411-1.322,1.467-2.359,2.859-2.359
		c0.232,0,0.445,0.036,0.445,0.036v1.716c0,0-0.231-0.054-0.5-0.054c-1.107,0-2.127,0.786-2.537,2.126
		c-0.16,0.518-0.215,1.072-0.215,1.626v3.699h-1.732V61.396z"/>
	<path fill="#00A099" d="M886.701,62.916h-1.181v-1.394h1.233v-2.608h1.681v2.608h2.181v1.394h-2.181v4.021
		c0,1.805,1.269,2.037,1.931,2.037c0.25,0,0.409-0.036,0.409-0.036v1.537c0,0-0.25,0.036-0.606,0.036
		c-1.162,0-3.467-0.358-3.467-3.378V62.916z"/>
	<path fill="#00A099" d="M892.706,57.822h1.751v1.77h-1.751V57.822z M892.724,61.396h1.733v9.042h-1.733V61.396z"/>
	<path fill="#00A099" d="M897.281,68.098c0,0,1.019,1.054,2.591,1.054c0.751,0,1.501-0.394,1.501-1.126
		c0-1.662-4.646-1.322-4.646-4.271c0-1.645,1.465-2.573,3.27-2.573c1.982,0,2.913,1,2.913,1l-0.696,1.305
		c0,0-0.805-0.804-2.234-0.804c-0.75,0-1.482,0.321-1.482,1.107c0,1.626,4.646,1.269,4.646,4.235c0,1.501-1.287,2.627-3.271,2.627
		c-2.215,0-3.432-1.322-3.432-1.322L897.281,68.098z"/>
	<path fill="#00A099" d="M905.556,62.916h-1.179v-1.394h1.231v-2.608h1.682v2.608h2.18v1.394h-2.18v4.021
		c0,1.805,1.27,2.037,1.93,2.037c0.25,0,0.41-0.036,0.41-0.036v1.537c0,0-0.25,0.036-0.607,0.036c-1.16,0-3.467-0.358-3.467-3.378
		V62.916z"/>
	<path fill="#00A099" d="M911.687,68.098c0,0,1.019,1.054,2.592,1.054c0.75,0,1.5-0.394,1.5-1.126c0-1.662-4.646-1.322-4.646-4.271
		c0-1.645,1.466-2.573,3.271-2.573c1.983,0,2.914,1,2.914,1l-0.697,1.305c0,0-0.805-0.804-2.233-0.804
		c-0.751,0-1.482,0.321-1.482,1.107c0,1.626,4.646,1.269,4.646,4.235c0,1.501-1.286,2.627-3.27,2.627
		c-2.217,0-3.433-1.322-3.433-1.322L911.687,68.098z"/>
	<path fill="#F8B133" d="M943.873,57.608c3.038,0,4.593,1.662,4.593,1.662l-0.876,1.322c0,0-1.465-1.376-3.646-1.376
		c-2.823,0-4.664,2.145-4.664,4.824c0,2.699,1.877,4.986,4.683,4.986c2.376,0,3.896-1.645,3.896-1.645l0.947,1.269
		c0,0-1.732,2.001-4.896,2.001c-3.788,0-6.45-2.895-6.45-6.594C937.458,60.396,940.21,57.608,943.873,57.608z"/>
	<path fill="#F8B133" d="M955.079,61.183c2.697,0,4.878,1.983,4.878,4.718c0,2.751-2.181,4.753-4.878,4.753
		c-2.699,0-4.879-2.001-4.879-4.753C950.2,63.166,952.38,61.183,955.079,61.183z M955.079,69.152c1.716,0,3.109-1.358,3.109-3.252
		c0-1.877-1.395-3.217-3.109-3.217c-1.698,0-3.109,1.34-3.109,3.217C951.97,67.794,953.381,69.152,955.079,69.152z"/>
	<path fill="#F8B133" d="M961.906,57.822h1.732v9.847c0,1.09,0.429,1.287,0.966,1.287c0.16,0,0.305-0.018,0.305-0.018v1.537
		c0,0-0.27,0.036-0.572,0.036c-0.982,0-2.431-0.269-2.431-2.538V57.822z"/>
	<path fill="#F8B133" d="M966.644,57.822h1.732v9.847c0,1.09,0.429,1.287,0.965,1.287c0.161,0,0.305-0.018,0.305-0.018v1.537
		c0,0-0.269,0.036-0.571,0.036c-0.983,0-2.431-0.269-2.431-2.538V57.822z"/>
	<path fill="#F8B133" d="M975.382,61.183c2.557,0,3.913,1.894,3.913,4.235c0,0.232-0.054,0.75-0.054,0.75h-6.594
		c0.089,1.983,1.5,2.984,3.108,2.984c1.556,0,2.681-1.054,2.681-1.054l0.716,1.269c0,0-1.341,1.287-3.502,1.287
		c-2.843,0-4.79-2.055-4.79-4.735C970.86,63.041,972.81,61.183,975.382,61.183z M977.526,64.863
		c-0.055-1.555-1.02-2.305-2.182-2.305c-1.322,0-2.395,0.822-2.645,2.305H977.526z"/>
	<path fill="#F8B133" d="M985.604,61.183c2.269,0,3.396,1.322,3.396,1.322l-0.822,1.215c0,0-0.965-1.036-2.502-1.036
		c-1.823,0-3.146,1.357-3.146,3.217c0,1.84,1.322,3.252,3.199,3.252c1.68,0,2.786-1.215,2.786-1.215l0.697,1.269
		c0,0-1.251,1.447-3.608,1.447c-2.843,0-4.844-2.021-4.844-4.735C980.762,63.237,982.763,61.183,985.604,61.183z"/>
	<path fill="#F8B133" d="M991.558,62.916h-1.181v-1.394h1.233v-2.608h1.68v2.608h2.18v1.394h-2.18v4.021
		c0,1.805,1.27,2.037,1.93,2.037c0.25,0,0.411-0.036,0.411-0.036v1.537c0,0-0.25,0.036-0.606,0.036
		c-1.162,0-3.467-0.358-3.467-3.378V62.916z"/>
	<path fill="#F8B133" d="M997.562,57.822h1.752v1.77h-1.752V57.822z M997.579,61.396h1.732v9.042h-1.732V61.396z"/>
	<path fill="#F8B133" d="M1002.029,57.822h1.732v4.129c0,0.446-0.036,0.768-0.036,0.768h0.036c0,0,0.77-1.537,2.896-1.537
		c2.43,0,3.967,1.93,3.967,4.735c0,2.877-1.733,4.735-4.11,4.735c-2.02,0-2.842-1.555-2.842-1.555h-0.035
		c0,0,0.035,0.286,0.035,0.679v0.662h-1.644V57.822z M1006.265,69.17c1.431,0,2.608-1.179,2.608-3.234
		c0-1.966-1.054-3.234-2.556-3.234c-1.357,0-2.608,0.947-2.608,3.252C1003.709,67.562,1004.549,69.17,1006.265,69.17z"/>
	<path fill="#F8B133" d="M1012.646,57.822h1.733v9.847c0,1.09,0.429,1.287,0.965,1.287c0.161,0,0.304-0.018,0.304-0.018v1.537
		c0,0-0.268,0.036-0.571,0.036c-0.982,0-2.431-0.269-2.431-2.538V57.822z"/>
	<path fill="#F8B133" d="M1021.385,61.183c2.556,0,3.913,1.894,3.913,4.235c0,0.232-0.054,0.75-0.054,0.75h-6.595
		c0.09,1.983,1.502,2.984,3.109,2.984c1.555,0,2.682-1.054,2.682-1.054l0.714,1.269c0,0-1.341,1.287-3.502,1.287
		c-2.843,0-4.789-2.055-4.789-4.735C1016.863,63.041,1018.812,61.183,1021.385,61.183z M1023.528,64.863
		c-0.055-1.555-1.02-2.305-2.18-2.305c-1.322,0-2.396,0.822-2.646,2.305H1023.528z"/>
	<path fill="#F8B133" d="M1027.515,68.098c0,0,1.02,1.054,2.592,1.054c0.75,0,1.5-0.394,1.5-1.126c0-1.662-4.646-1.322-4.646-4.271
		c0-1.645,1.465-2.573,3.271-2.573c1.982,0,2.912,1,2.912,1l-0.695,1.305c0,0-0.806-0.804-2.234-0.804
		c-0.75,0-1.482,0.321-1.482,1.107c0,1.626,4.646,1.269,4.646,4.235c0,1.501-1.287,2.627-3.271,2.627
		c-2.216,0-3.432-1.322-3.432-1.322L1027.515,68.098z"/>
	<path fill="#1D1D1B" d="M1054.146,57.822h4.608c2.306,0,3.968,1.555,3.968,3.95s-1.662,4.003-3.968,4.003h-2.841v4.664h-1.77
		V57.822H1054.146z M1058.469,64.238c1.521,0,2.448-0.947,2.448-2.466s-0.929-2.413-2.432-2.413h-2.572v4.879H1058.469z"/>
	<path fill="#1D1D1B" d="M1064.635,61.396h1.681v1.573c0,0.375-0.035,0.679-0.035,0.679h0.035c0.41-1.322,1.466-2.359,2.858-2.359
		c0.232,0,0.447,0.036,0.447,0.036v1.716c0,0-0.231-0.054-0.501-0.054c-1.107,0-2.126,0.786-2.537,2.126
		c-0.161,0.518-0.215,1.072-0.215,1.626v3.699h-1.732L1064.635,61.396L1064.635,61.396z"/>
	<path fill="#1D1D1B" d="M1075.501,61.183c2.698,0,4.879,1.983,4.879,4.718c0,2.751-2.181,4.753-4.879,4.753
		s-4.878-2.001-4.878-4.753C1070.623,63.166,1072.803,61.183,1075.501,61.183z M1075.501,69.152c1.716,0,3.109-1.358,3.109-3.252
		c0-1.877-1.395-3.217-3.109-3.217c-1.698,0-3.109,1.34-3.109,3.217C1072.392,67.794,1073.803,69.152,1075.501,69.152z"/>
	<path fill="#1D1D1B" d="M1084.151,61.396v9.346c0,3.02-2.323,3.377-3.449,3.377c-0.375,0-0.607-0.036-0.607-0.036v-1.482
		c0,0,0.161,0.018,0.395,0.018c0.66,0,1.947-0.215,1.947-1.983v-9.239L1084.151,61.396L1084.151,61.396z M1082.418,57.822h1.752
		v1.77h-1.752V57.822z"/>
	<path fill="#1D1D1B" d="M1090.765,61.183c2.556,0,3.913,1.894,3.913,4.235c0,0.232-0.055,0.75-0.055,0.75h-6.595
		c0.091,1.983,1.502,2.984,3.109,2.984c1.555,0,2.682-1.054,2.682-1.054l0.715,1.269c0,0-1.34,1.287-3.502,1.287
		c-2.842,0-4.79-2.055-4.79-4.735C1086.242,63.041,1088.19,61.183,1090.765,61.183z M1092.908,64.863
		c-0.054-1.555-1.02-2.305-2.181-2.305c-1.322,0-2.395,0.822-2.646,2.305H1092.908z"/>
	<path fill="#1D1D1B" d="M1100.985,61.183c2.271,0,3.396,1.322,3.396,1.322l-0.822,1.215c0,0-0.965-1.036-2.502-1.036
		c-1.822,0-3.146,1.357-3.146,3.217c0,1.84,1.323,3.252,3.198,3.252c1.681,0,2.787-1.215,2.787-1.215l0.697,1.269
		c0,0-1.25,1.447-3.609,1.447c-2.84,0-4.842-2.021-4.842-4.735C1096.144,63.237,1098.146,61.183,1100.985,61.183z"/>
	<path fill="#1D1D1B" d="M1106.938,62.916h-1.181v-1.394h1.233v-2.608h1.68v2.608h2.18v1.394h-2.18v4.021
		c0,1.805,1.27,2.037,1.93,2.037c0.25,0,0.412-0.036,0.412-0.036v1.537c0,0-0.25,0.036-0.607,0.036
		c-1.162,0-3.467-0.358-3.467-3.378V62.916z"/>
	<path fill="#1D1D1B" d="M1113.067,68.098c0,0,1.02,1.054,2.592,1.054c0.751,0,1.501-0.394,1.501-1.126
		c0-1.662-4.646-1.322-4.646-4.271c0-1.645,1.466-2.573,3.271-2.573c1.981,0,2.911,1,2.911,1l-0.695,1.305
		c0,0-0.805-0.804-2.234-0.804c-0.75,0-1.482,0.321-1.482,1.107c0,1.626,4.646,1.269,4.646,4.235c0,1.501-1.287,2.627-3.271,2.627
		c-2.215,0-3.432-1.322-3.432-1.322L1113.067,68.098z"/>
</g>
<g>
	<g>
		<g>
			<defs>
				<rect id="SVGID_1_" x="132.66" y="256.61" width="417.032" height="274.786"/>
			</defs>
			<clipPath id="SVGID_2_">
				<use xlink:href="#SVGID_1_"  overflow="visible"/>
			</clipPath>
			<path clip-path="url(#SVGID_2_)" fill="#FAAF40" d="M484.032,456.057c0,15.615,11.979,28.428,27.283,29.855l-16.791-52.597
				C488.103,438.815,484.032,446.96,484.032,456.057"/>
		</g>
		<g>
			<defs>
				<rect id="SVGID_3_" x="132.66" y="256.61" width="417.032" height="274.786"/>
			</defs>
			<clipPath id="SVGID_4_">
				<use xlink:href="#SVGID_3_"  overflow="visible"/>
			</clipPath>
			<path clip-path="url(#SVGID_4_)" fill="#D91C5C" d="M545.256,478.369h-23.071h-1.646h-2.104c-1.496,0-2.711-1.208-2.711-2.701
				c0-1.491,1.215-2.701,2.711-2.701l1.933,0.018h5.96c2.133,0,3.861-1.724,3.861-3.848c0-2.125-1.729-3.848-3.861-3.848h-8.822
				h-1.318c-1.496,0-2.711-1.209-2.711-2.7c0-1.492,1.215-2.7,2.711-2.7l2.055,0.018h3.264c2.134,0,3.862-1.724,3.862-3.849
				c0-2.123-1.729-3.847-3.862-3.847h-3.264l-3.409,0.015c-1.496,0-2.711-1.207-2.711-2.698c0-1.492,1.215-2.701,2.711-2.701h0.927
				h5.174c2.133,0,3.86-1.722,3.86-3.847c0-2.122-1.729-3.847-3.86-3.847h-1.037h-1.608c-1.497,0-2.713-1.21-2.713-2.7
				c0-1.491,1.216-2.699,2.713-2.699l3.08,0.016h24.467c2.132,0,3.858-1.723,3.858-3.846c0-2.128-1.728-3.85-3.858-3.85h-31.669
				h-0.009h-0.72h-0.65c-0.206,0-0.405,0.028-0.6,0.072c-6.73,0.434-12.854,3.073-17.662,7.192l16.794,52.596
				c0.29,0.028,0.577,0.06,0.868,0.077c0.193,0.045,0.394,0.073,0.6,0.073h0.65h31.821c2.134,0,3.862-1.723,3.862-3.849
				C549.119,480.09,547.39,478.369,545.256,478.369"/>
		</g>
		<g>
			<defs>
				<rect id="SVGID_5_" x="132.66" y="256.61" width="417.032" height="274.786"/>
			</defs>
			<clipPath id="SVGID_6_">
				<use xlink:href="#SVGID_5_"  overflow="visible"/>
			</clipPath>
			<path clip-path="url(#SVGID_6_)" fill="#00A69C" d="M440.49,486.062c0,2.125,1.729,3.848,3.862,3.848
				c2.135,0,3.864-1.723,3.864-3.848v-31.635l-7.728-6.395L440.49,486.062L440.49,486.062z"/>
		</g>
		<g>
			<defs>
				<rect id="SVGID_7_" x="132.66" y="256.61" width="417.032" height="274.786"/>
			</defs>
			<clipPath id="SVGID_8_">
				<use xlink:href="#SVGID_7_"  overflow="visible"/>
			</clipPath>
			<path clip-path="url(#SVGID_8_)" fill="#00A69C" d="M453.623,473.111c0,2.125,1.729,3.847,3.864,3.847
				c2.134,0,3.86-1.722,3.86-3.847v-7.815l-7.726-6.392L453.623,473.111L453.623,473.111z"/>
		</g>
		<g>
			<defs>
				<rect id="SVGID_9_" x="132.66" y="256.61" width="417.032" height="274.786"/>
			</defs>
			<clipPath id="SVGID_10_">
				<use xlink:href="#SVGID_9_"  overflow="visible"/>
			</clipPath>
			<path clip-path="url(#SVGID_10_)" fill="#FAAF40" d="M435.692,444.063c0.498-0.601,1.24-0.993,2.086-0.993
				c1.498,0,2.713,1.208,2.713,2.7v0.923v1.339l7.727,6.395v-3.613v-1.604c0-1.49,1.212-2.7,2.709-2.7c1.499,0,2.712,1.21,2.712,2.7
				l-0.016,3.071v6.624l7.726,6.392V429.4l0.002-0.647c0-1.49-1.214-2.701-2.711-2.701h-25.461l-15.054,3.473L435.692,444.063z"/>
		</g>
		<g>
			<defs>
				<rect id="SVGID_11_" x="132.66" y="256.61" width="417.032" height="274.786"/>
			</defs>
			<clipPath id="SVGID_12_">
				<use xlink:href="#SVGID_11_"  overflow="visible"/>
			</clipPath>
			<path clip-path="url(#SVGID_12_)" fill="#00A69C" d="M401.086,433.455v48.759c0,2.125,1.73,3.848,3.865,3.848
				c2.134,0,3.862-1.723,3.862-3.848v-29.121v-1.641v-2.094c0-1.491,1.216-2.699,2.713-2.699c1.499,0,2.709,1.209,2.709,2.699
				l-0.017,1.924v16.682c0,2.124,1.729,3.846,3.866,3.846c2.133,0,3.862-1.722,3.862-3.846v-19.532v-1.313
				c0-1.489,1.214-2.7,2.709-2.7c1.499,0,2.713,1.21,2.713,2.7l-0.015,2.045v26.521c0,2.127,1.728,3.849,3.862,3.849
				c2.132,0,3.863-1.722,3.863-3.849v-26.521l-0.017-3.396c0-0.65,0.24-1.24,0.625-1.705l-17.566-14.539L401.086,433.455z"/>
		</g>
		<g>
			<defs>
				<rect id="SVGID_13_" x="132.66" y="256.61" width="417.032" height="274.786"/>
			</defs>
			<clipPath id="SVGID_14_">
				<use xlink:href="#SVGID_13_"  overflow="visible"/>
			</clipPath>
			<path clip-path="url(#SVGID_14_)" fill="#D91C5C" d="M413.928,426.052h-10.127c-1.499,0-2.715,1.207-2.715,2.701v0.647v4.054
				l17.038-3.93L413.928,426.052z"/>
		</g>
	</g>
	<polygon fill="#D91C5C" points="418.125,429.524 433.178,426.052 413.928,426.052 	"/>
	<g>
		<g>
			<defs>
				<rect id="SVGID_15_" x="132.66" y="256.61" width="417.032" height="274.786"/>
			</defs>
			<clipPath id="SVGID_16_">
				<use xlink:href="#SVGID_15_"  overflow="visible"/>
			</clipPath>
			<path clip-path="url(#SVGID_16_)" fill="#00A69C" d="M473.104,486.496c2.133,0,3.861-1.722,3.861-3.846v-4.43l-7.724-6.394
				v10.823C469.243,484.774,470.97,486.496,473.104,486.496"/>
		</g>
		<g>
			<defs>
				<rect id="SVGID_17_" x="132.66" y="256.61" width="417.032" height="274.786"/>
			</defs>
			<clipPath id="SVGID_18_">
				<use xlink:href="#SVGID_17_"  overflow="visible"/>
			</clipPath>
			<path clip-path="url(#SVGID_18_)" fill="#231F20" d="M476.966,450.299v-11.362v-9.473c0-2.125-1.729-3.847-3.861-3.847
				c-2.135,0-3.861,1.722-3.861,3.847v32.352v0.001v10.011l7.724,6.394L476.966,450.299L476.966,450.299z"/>
		</g>
		<g>
			<defs>
				<rect id="SVGID_19_" x="132.66" y="256.61" width="417.032" height="274.786"/>
			</defs>
			<clipPath id="SVGID_20_">
				<use xlink:href="#SVGID_19_"  overflow="visible"/>
			</clipPath>
			<path clip-path="url(#SVGID_20_)" fill="#231F20" d="M361.76,439.132h-1.609c-1.498,0-2.714-1.209-2.714-2.701
				c0-1.49,1.216-2.699,2.714-2.699l3.078,0.016h25.938c2.135,0,3.863-1.722,3.863-3.846c0-2.126-1.729-3.85-3.863-3.85h-48.91
				h-0.649c-1.496,0-2.711,1.208-2.711,2.701v19.508l37.528-8.656c-0.551-0.303-1.183-0.473-1.854-0.473H361.76z"/>
		</g>
		<g>
			<defs>
				<rect id="SVGID_21_" x="132.66" y="256.61" width="417.032" height="274.786"/>
			</defs>
			<clipPath id="SVGID_22_">
				<use xlink:href="#SVGID_21_"  overflow="visible"/>
			</clipPath>
			<path clip-path="url(#SVGID_22_)" fill="#D91C5C" d="M336.896,483.363c0,1.489,1.215,2.698,2.711,2.698h0.65h49.432
				c2.134,0,3.861-1.721,3.861-3.848c0-2.123-1.728-3.845-3.861-3.845h-25.638h-1.646h-2.104c-1.497,0-2.712-1.209-2.712-2.701
				c0-1.491,1.215-2.701,2.712-2.701l1.931,0.018h5.458c2.135,0,3.863-1.724,3.863-3.848c0-2.125-1.729-3.848-3.863-3.848h-8.32
				h-1.316c-1.499,0-2.714-1.21-2.714-2.7c0-1.492,1.215-2.7,2.714-2.7l2.053,0.018h23.828c2.136,0,3.864-1.724,3.864-3.85
				c0-2.125-1.729-3.846-3.864-3.846h-23.828l-3.408,0.015c-1.499,0-2.715-1.209-2.715-2.699c0-1.491,1.216-2.701,2.715-2.701h0.924
				h14.948c2.132,0,3.861-1.723,3.861-3.848c0-1.452-0.811-2.721-2.007-3.372l-37.528,8.655L336.896,483.363L336.896,483.363z"/>
		</g>
		<g>
			<defs>
				<rect id="SVGID_23_" x="132.66" y="256.61" width="417.032" height="274.786"/>
			</defs>
			<clipPath id="SVGID_24_">
				<use xlink:href="#SVGID_23_"  overflow="visible"/>
			</clipPath>
			<path clip-path="url(#SVGID_24_)" fill="#231F20" d="M296.614,456.995v-0.004v-1.771l-9.179-29.169H267.53
				c-2.134,0-3.861,1.721-3.861,3.846c0,2.127,1.727,3.849,3.861,3.849h8.029h1.647h2.101c1.498,0,2.713,1.207,2.713,2.701
				c0,1.489-1.215,2.7-2.713,2.7l-1.93-0.017H265.4c-2.134,0-3.864,1.722-3.864,3.847s1.73,3.847,3.864,3.847h14.839h1.318
				c1.498,0,2.71,1.209,2.71,2.701c0,1.49-1.212,2.698-2.71,2.698l-2.054-0.015h-9.279c-2.136,0-3.864,1.723-3.864,3.847
				c0,2.125,1.729,3.849,3.864,3.849h9.279l3.409-0.018c0.567,0,1.092,0.175,1.527,0.472l12.173-2.808v-0.556H296.614z"/>
		</g>
		<g>
			<defs>
				<rect id="SVGID_25_" x="132.66" y="256.61" width="417.032" height="274.786"/>
			</defs>
			<clipPath id="SVGID_26_">
				<use xlink:href="#SVGID_25_"  overflow="visible"/>
			</clipPath>
			<path clip-path="url(#SVGID_26_)" fill="#00A69C" d="M304.342,455.87v9.847c0,1.911-1.397,3.489-3.23,3.791l4.919,15.627
				c13.059-3.284,22.727-15.051,22.727-29.078c0-1.979-0.193-3.917-0.561-5.791l-23.854,5.503V455.87z"/>
		</g>
		<g>
			<defs>
				<rect id="SVGID_27_" x="132.66" y="256.61" width="417.032" height="274.786"/>
			</defs>
			<clipPath id="SVGID_28_">
				<use xlink:href="#SVGID_27_"  overflow="visible"/>
			</clipPath>
			<path clip-path="url(#SVGID_28_)" fill="#D91C5C" d="M300.603,426.124c-0.193-0.044-0.393-0.072-0.6-0.072h-0.649h-11.918
				l9.179,29.169v-8.823c0-2.125,1.729-3.848,3.861-3.848c2.136,0,3.866,1.723,3.866,3.848v5.527v3.844l23.854-5.503
				C325.609,437.094,314.363,427.013,300.603,426.124"/>
		</g>
		<g>
			<defs>
				<rect id="SVGID_29_" x="132.66" y="256.61" width="417.032" height="274.786"/>
			</defs>
			<clipPath id="SVGID_30_">
				<use xlink:href="#SVGID_29_"  overflow="visible"/>
			</clipPath>
			<path clip-path="url(#SVGID_30_)" fill="#FAAF40" d="M300.478,469.565c-2.136,0-3.863-1.725-3.863-3.849v-8.166l-12.173,2.808
				c0.714,0.485,1.185,1.303,1.185,2.229c0,1.49-1.215,2.7-2.713,2.7h-0.926h-11.189c-2.134,0-3.863,1.722-3.863,3.848
				c0,2.124,1.729,3.848,3.863,3.848h7.052h1.611c1.498,0,2.712,1.209,2.712,2.699c0,1.492-1.214,2.7-2.712,2.7l-3.082-0.014h-1.53
				c-2.134,0-3.862,1.722-3.862,3.845c0,2.125,1.729,3.848,3.862,3.848h23.774h0.008h0.722h0.65c0.208,0,0.406-0.027,0.601-0.072
				c1.858-0.119,3.673-0.411,5.426-0.854l-4.919-15.628C300.904,469.541,300.693,469.565,300.478,469.565"/>
		</g>
		<g>
			<defs>
				<rect id="SVGID_31_" x="132.66" y="256.61" width="417.032" height="274.786"/>
			</defs>
			<clipPath id="SVGID_32_">
				<use xlink:href="#SVGID_31_"  overflow="visible"/>
			</clipPath>
			<path clip-path="url(#SVGID_32_)" fill="#231F20" d="M158.302,426.052h-22.28h-0.65c-1.497,0-2.711,1.207-2.711,2.701v23.423
				l3.097,1.341L158.302,426.052z"/>
		</g>
	</g>
	<polygon fill="#231F20" points="132.66,457.29 135.757,453.517 132.66,452.177 	"/>
	<g>
		<g>
			<defs>
				<rect id="SVGID_33_" x="132.66" y="256.61" width="417.032" height="274.786"/>
			</defs>
			<clipPath id="SVGID_34_">
				<use xlink:href="#SVGID_33_"  overflow="visible"/>
			</clipPath>
			<path clip-path="url(#SVGID_34_)" fill="#D91C5C" d="M155.134,465.288h-1.317c-1.499,0-2.713-1.209-2.713-2.699
				c0-0.81,0.365-1.53,0.933-2.023l-16.28-7.049l-3.097,3.773v26.073c0,1.488,1.214,2.698,2.711,2.698h0.65h49.431
				c2.135,0,3.865-1.722,3.865-3.848c0-2.124-1.73-3.845-3.865-3.845h-25.638h-1.646h-2.103c-1.497,0-2.711-1.209-2.711-2.701
				c0-1.491,1.214-2.701,2.711-2.701l1.932,0.018h11.977c1.849,0,3.394-1.293,3.771-3.021l-10.795-4.674L155.134,465.288
				L155.134,465.288z"/>
		</g>
		<g>
			<defs>
				<rect id="SVGID_35_" x="132.66" y="256.61" width="417.032" height="274.786"/>
			</defs>
			<clipPath id="SVGID_36_">
				<use xlink:href="#SVGID_35_"  overflow="visible"/>
			</clipPath>
			<path clip-path="url(#SVGID_36_)" fill="#00A69C" d="M152.037,460.566c0.476-0.419,1.096-0.679,1.78-0.679l2.053,0.018h23.828
				c2.136,0,3.864-1.724,3.864-3.849c0-2.124-1.729-3.847-3.864-3.847H155.87l-3.41,0.016c-1.497,0-2.71-1.209-2.71-2.699
				c0-1.492,1.214-2.701,2.71-2.701h0.928h35.001c2.133,0,3.864-1.723,3.864-3.848c0-2.121-1.73-3.846-3.864-3.846h-30.867h-1.608
				c-1.497,0-2.713-1.21-2.713-2.701c0-1.49,1.216-2.698,2.713-2.698l3.08,0.016h20.92c2.137,0,3.866-1.723,3.866-3.846
				c0-2.128-1.729-3.85-3.866-3.85h-21.612l-22.544,27.466L152.037,460.566z"/>
		</g>
		<g>
			<defs>
				<rect id="SVGID_37_" x="132.66" y="256.61" width="417.032" height="274.786"/>
			</defs>
			<clipPath id="SVGID_38_">
				<use xlink:href="#SVGID_37_"  overflow="visible"/>
			</clipPath>
			<path clip-path="url(#SVGID_38_)" fill="#00A69C" d="M169.973,465.288h-7.023l10.795,4.674c0.06-0.267,0.091-0.543,0.091-0.826
				C173.835,467.011,172.106,465.288,169.973,465.288"/>
		</g>
		<g>
			<defs>
				<rect id="SVGID_39_" x="132.66" y="256.61" width="417.032" height="274.786"/>
			</defs>
			<clipPath id="SVGID_40_">
				<use xlink:href="#SVGID_39_"  overflow="visible"/>
			</clipPath>
			<path clip-path="url(#SVGID_40_)" fill="#00A69C" d="M226.541,425.793h-27.422c-1.495,0-2.709,1.209-2.709,2.701v0.646v50.633
				l7.625,3.302c0.065-0.278,0.101-0.564,0.101-0.861v-29.378v-1.64v-11.581c0-1.493,1.214-2.701,2.711-2.701
				c1.498,0,2.711,1.208,2.711,2.701l-0.015,1.922v9.882c0,2.126,1.73,3.847,3.864,3.847c2.132,0,3.861-1.721,3.861-3.847v-1.056
				v-1.229c0-1.49,1.214-2.698,2.711-2.698c1.499,0,2.711,1.208,2.711,2.698l-0.016,2.045v4.542c0,2.126,1.73,3.849,3.865,3.849
				c2.133,0,3.862-1.723,3.862-3.849v-5.884l-0.015-3.397c0-1.49,1.213-2.698,2.71-2.698c1.497,0,2.711,1.208,2.711,2.698v12.802
				v0.054c0,2.125,1.73,3.848,3.864,3.848c2.131,0,3.861-1.722,3.861-3.848v-2.591v-0.438v0.438c0-1.489,1.216-2.7,2.713-2.7
				s2.709,1.21,2.709,2.7l-0.013,0.294v11.55l7.725-1.782V453.83C255.652,438.178,242.516,425.793,226.541,425.793"/>
		</g>
		<g>
			<defs>
				<rect id="SVGID_41_" x="132.66" y="256.61" width="417.032" height="274.786"/>
			</defs>
			<clipPath id="SVGID_42_">
				<use xlink:href="#SVGID_41_"  overflow="visible"/>
			</clipPath>
			<path clip-path="url(#SVGID_42_)" fill="#FAAF40" d="M248.945,482.201c0,2.126,1.729,3.848,3.863,3.848
				c2.133,0,3.862-1.722,3.862-3.848v-15.438l-7.725,1.783V482.201z"/>
		</g>
		<g>
			<defs>
				<rect id="SVGID_43_" x="132.66" y="256.61" width="417.032" height="274.786"/>
			</defs>
			<clipPath id="SVGID_44_">
				<use xlink:href="#SVGID_43_"  overflow="visible"/>
			</clipPath>
			<path clip-path="url(#SVGID_44_)" fill="#D91C5C" d="M196.41,482.213c0,2.125,1.729,3.847,3.862,3.847
				c1.836,0,3.37-1.275,3.763-2.986l-7.625-3.301V482.213z"/>
		</g>
		<g>
			<defs>
				<rect id="SVGID_45_" x="132.66" y="256.61" width="417.032" height="274.786"/>
			</defs>
			<clipPath id="SVGID_46_">
				<use xlink:href="#SVGID_45_"  overflow="visible"/>
			</clipPath>
			<path clip-path="url(#SVGID_46_)" fill="#231F20" d="M341.146,274.46c-4.774,0-8.645,3.854-8.645,8.609
				c0,4.755,3.87,8.61,8.645,8.61s8.643-3.854,8.643-8.61C349.789,278.314,345.92,274.46,341.146,274.46"/>
		</g>
		<g>
			<defs>
				<rect id="SVGID_47_" x="132.66" y="256.61" width="417.032" height="274.786"/>
			</defs>
			<clipPath id="SVGID_48_">
				<use xlink:href="#SVGID_47_"  overflow="visible"/>
			</clipPath>
			<path clip-path="url(#SVGID_48_)" fill="#231F20" d="M305.08,279.719c-1.858,0-3.364,1.501-3.364,3.35
				c0,1.85,1.506,3.351,3.364,3.351c1.858,0,3.367-1.501,3.367-3.351S306.938,279.719,305.08,279.719"/>
		</g>
		<g>
			<defs>
				<rect id="SVGID_49_" x="132.66" y="256.61" width="417.032" height="274.786"/>
			</defs>
			<clipPath id="SVGID_50_">
				<use xlink:href="#SVGID_49_"  overflow="visible"/>
			</clipPath>
			<path clip-path="url(#SVGID_50_)" fill="#231F20" d="M377.383,279.719c-1.857,0-3.365,1.501-3.365,3.35
				c0,1.85,1.508,3.351,3.365,3.351c1.86,0,3.364-1.501,3.364-3.351C380.748,281.219,379.244,279.719,377.383,279.719"/>
		</g>
		<g>
			<defs>
				<rect id="SVGID_51_" x="132.66" y="256.61" width="417.032" height="274.786"/>
			</defs>
			<clipPath id="SVGID_52_">
				<use xlink:href="#SVGID_51_"  overflow="visible"/>
			</clipPath>
			<path clip-path="url(#SVGID_52_)" fill="#231F20" d="M305.111,291.679c-4.772,0-8.646-3.856-8.646-8.61
				c0-4.755,3.872-8.609,8.646-8.609s8.646,3.854,8.646,8.609C313.757,287.822,309.886,291.679,305.111,291.679 M323.274,283.069
				c0-7.518,4.676-13.942,11.287-16.562l-22.86-9.897h-0.637c-13.828,0-25.032,11.161-25.032,24.928
				c0,10.262,6.227,19.068,15.123,22.89l23.299-14.992C323.694,287.458,323.274,285.313,323.274,283.069"/>
		</g>
		<g>
			<defs>
				<rect id="SVGID_53_" x="132.66" y="256.61" width="417.032" height="274.786"/>
			</defs>
			<clipPath id="SVGID_54_">
				<use xlink:href="#SVGID_53_"  overflow="visible"/>
			</clipPath>
			<path clip-path="url(#SVGID_54_)" fill="#00A69C" d="M341.175,265.242c4.965,0,9.458,2.016,12.7,5.264l21.164-13.616
				c-1.225-0.185-2.477-0.28-3.75-0.28h-59.588l22.86,9.897C336.607,265.692,338.837,265.242,341.175,265.242"/>
		</g>
		<g>
			<defs>
				<rect id="SVGID_55_" x="132.66" y="256.61" width="417.032" height="274.786"/>
			</defs>
			<clipPath id="SVGID_56_">
				<use xlink:href="#SVGID_55_"  overflow="visible"/>
			</clipPath>
			<path clip-path="url(#SVGID_56_)" fill="#D91C5C" d="M377.329,291.678c-4.775,0-8.646-3.855-8.646-8.61
				c0-0.587,0.062-1.163,0.172-1.718l-11.003-4.762c0.79,2.009,1.226,4.194,1.226,6.48c0,9.846-8.014,17.827-17.901,17.827
				c-7.631,0-14.144-4.76-16.72-11.46l-23.3,14.992c2.456,1.056,5.112,1.731,7.901,1.951c1.144,0.318,1.987,1.354,1.987,2.593v0.348
				v39.842c0,2.123,1.729,3.845,3.864,3.845c2.133,0,3.863-1.722,3.863-3.845v-25.532v-1.639v-2.094
				c0-1.491,1.215-2.701,2.711-2.701c1.499,0,2.713,1.21,2.713,2.701l-0.016,1.922v37.318c0,2.126,1.729,3.849,3.861,3.849
				c2.135,0,3.865-1.723,3.865-3.849v-40.17v-1.311c0-1.491,1.214-2.702,2.711-2.702s2.711,1.211,2.711,2.702l-0.015,2.045v49.69
				c0,2.125,1.731,3.848,3.862,3.848c2.134,0,3.862-1.723,3.862-3.848V319.7l-0.014-3.396c0-1.491,1.215-2.7,2.713-2.7
				c1.494,0,2.71,1.209,2.71,2.7v0.923v34.858c0,2.125,1.729,3.846,3.863,3.846c2.133,0,3.863-1.721,3.863-3.846v-30.738v-1.604
				c0-1.491,1.216-2.699,2.712-2.699c1.498,0,2.713,1.208,2.713,2.699l-0.018,3.068v20.834c0,2.123,1.728,3.85,3.861,3.85
				c2.136,0,3.865-1.725,3.865-3.85V310.04v-0.873c0-1.493,1.215-2.702,2.711-2.702l-2.441-0.006
				c9.872-0.111,18.366-5.91,22.343-14.258l-9.559-4.138C382.792,290.247,380.229,291.678,377.329,291.678"/>
		</g>
		<g>
			<defs>
				<rect id="SVGID_57_" x="132.66" y="256.61" width="417.032" height="274.786"/>
			</defs>
			<clipPath id="SVGID_58_">
				<use xlink:href="#SVGID_57_"  overflow="visible"/>
			</clipPath>
			<path clip-path="url(#SVGID_58_)" fill="#FAAF40" d="M375.04,256.89l-21.164,13.616c1.715,1.719,3.074,3.784,3.977,6.082
				l11.003,4.762c0.8-3.93,4.289-6.889,8.474-6.889c4.774,0,8.643,3.854,8.643,8.608c0,1.863-0.602,3.585-1.608,4.995l9.558,4.138
				c1.539-3.234,2.4-6.847,2.4-10.663C396.32,269.042,387.083,258.693,375.04,256.89"/>
		</g>
		<g>
			<defs>
				<rect id="SVGID_59_" x="132.66" y="256.61" width="417.032" height="274.786"/>
			</defs>
			<clipPath id="SVGID_60_">
				<use xlink:href="#SVGID_59_"  overflow="visible"/>
			</clipPath>
			<path clip-path="url(#SVGID_60_)" fill="#231F20" d="M206.682,518.559c3.038,0,4.602,1.697,4.602,1.697l-1.089,1.679
				c0,0-1.423-1.311-3.407-1.311c-2.635,0-4.181,1.958-4.181,4.268c0,2.36,1.599,4.442,4.199,4.442c2.16,0,3.618-1.575,3.618-1.575
				l1.194,1.627c0,0-1.721,2.012-4.9,2.012c-3.811,0-6.446-2.816-6.446-6.472C200.271,521.322,203.01,518.559,206.682,518.559"/>
		</g>
		<g>
			<defs>
				<rect id="SVGID_61_" x="132.66" y="256.61" width="417.032" height="274.786"/>
			</defs>
			<clipPath id="SVGID_62_">
				<use xlink:href="#SVGID_61_"  overflow="visible"/>
			</clipPath>
			<path clip-path="url(#SVGID_62_)" fill="#231F20" d="M225.717,529.333c2.284,0,4.11-1.889,4.11-4.443
				c0-2.448-1.827-4.267-4.11-4.267c-2.283,0-4.11,1.818-4.11,4.267C221.606,527.444,223.434,529.333,225.717,529.333
				 M225.717,518.559c3.671,0,6.446,2.781,6.446,6.331c0,3.656-2.775,6.508-6.446,6.508s-6.446-2.852-6.446-6.508
				C219.271,521.339,222.046,518.559,225.717,518.559"/>
		</g>
	</g>
	<polygon fill="#231F20" points="240.958,518.768 240.958,531.186 248.617,531.186 248.617,529.244 243.224,529.244 
		243.224,518.768 	"/>
	<polygon fill="#231F20" points="256.92,518.768 256.92,531.186 264.578,531.186 264.578,529.244 259.186,529.244 259.186,518.768 	
		"/>
	<polygon fill="#231F20" points="272.882,518.768 272.882,531.186 280.628,531.186 280.628,529.244 275.147,529.244 
		275.147,525.904 279.346,525.904 279.346,523.963 275.147,523.963 275.147,520.709 280.347,520.709 280.347,518.768 	"/>
	<g>
		<g>
			<defs>
				<rect id="SVGID_63_" x="132.66" y="256.61" width="417.032" height="274.786"/>
			</defs>
			<clipPath id="SVGID_64_">
				<use xlink:href="#SVGID_63_"  overflow="visible"/>
			</clipPath>
			<path clip-path="url(#SVGID_64_)" fill="#231F20" d="M294.957,518.559c3.038,0,4.603,1.697,4.603,1.697l-1.089,1.679
				c0,0-1.424-1.311-3.408-1.311c-2.635,0-4.181,1.958-4.181,4.268c0,2.36,1.598,4.442,4.198,4.442c2.16,0,3.619-1.575,3.619-1.575
				l1.193,1.627c0,0-1.722,2.012-4.899,2.012c-3.813,0-6.446-2.816-6.446-6.472C288.547,521.322,291.286,518.559,294.957,518.559"/>
		</g>
	</g>
	<polygon fill="#231F20" points="306.967,518.768 306.967,520.709 311.059,520.709 311.059,531.186 313.325,531.186 
		313.325,520.709 317.418,520.709 317.418,518.768 	"/>
	<g>
		<g>
			<defs>
				<rect id="SVGID_65_" x="132.66" y="256.61" width="417.032" height="274.786"/>
			</defs>
			<clipPath id="SVGID_66_">
				<use xlink:href="#SVGID_65_"  overflow="visible"/>
			</clipPath>
			<path clip-path="url(#SVGID_66_)" fill="#231F20" d="M336.609,528.003c0,0,1.354,1.311,3.109,1.311
				c0.948,0,1.811-0.488,1.811-1.504c0-2.222-5.884-1.837-5.884-5.649c0-2.064,1.791-3.603,4.181-3.603
				c2.458,0,3.724,1.329,3.724,1.329l-0.984,1.836c0,0-1.194-1.084-2.758-1.084c-1.055,0-1.879,0.612-1.879,1.486
				c0,2.204,5.866,1.661,5.866,5.632c0,1.978-1.511,3.638-4.11,3.638c-2.774,0-4.304-1.696-4.304-1.696L336.609,528.003z"/>
		</g>
		<g>
			<defs>
				<rect id="SVGID_67_" x="132.66" y="256.61" width="417.032" height="274.786"/>
			</defs>
			<clipPath id="SVGID_68_">
				<use xlink:href="#SVGID_67_"  overflow="visible"/>
			</clipPath>
			<path clip-path="url(#SVGID_68_)" fill="#231F20" d="M353.186,518.768h2.425l2.44,6.14c0.28,0.734,0.633,1.818,0.633,1.818h0.034
				c0,0,0.334-1.084,0.615-1.818l2.441-6.14h2.423l1.002,12.419h-2.248l-0.527-6.943c-0.053-0.823-0.018-1.924-0.018-1.924h-0.035
				c0,0-0.368,1.207-0.667,1.924l-2.021,4.809h-1.983l-2.003-4.809c-0.299-0.717-0.686-1.942-0.686-1.942h-0.035
				c0,0,0.035,1.12-0.018,1.942l-0.527,6.943h-2.266L353.186,518.768z"/>
		</g>
		<g>
			<defs>
				<rect id="SVGID_69_" x="132.66" y="256.61" width="417.032" height="274.786"/>
			</defs>
			<clipPath id="SVGID_70_">
				<use xlink:href="#SVGID_69_"  overflow="visible"/>
			</clipPath>
			<path clip-path="url(#SVGID_70_)" fill="#231F20" d="M378.475,520.92c0,0-0.281,1.224-0.528,1.923l-1.105,3.323h3.267
				l-1.106-3.323c-0.229-0.699-0.492-1.923-0.492-1.923H378.475z M380.67,528.003h-4.374l-1.054,3.183h-2.336l4.392-12.419h2.371
				l4.391,12.419h-2.336L380.67,528.003z"/>
		</g>
		<g>
			<defs>
				<rect id="SVGID_71_" x="132.66" y="256.61" width="417.032" height="274.786"/>
			</defs>
			<clipPath id="SVGID_72_">
				<use xlink:href="#SVGID_71_"  overflow="visible"/>
			</clipPath>
			<path clip-path="url(#SVGID_72_)" fill="#231F20" d="M396.458,524.593c1.212,0,1.967-0.717,1.967-1.959
				c0-1.189-0.51-1.925-2.282-1.925h-1.722v3.884H396.458z M392.155,518.768h4.021c1.353,0,1.966,0.105,2.512,0.351
				c1.246,0.56,2.037,1.748,2.037,3.393c0,1.486-0.791,2.868-2.108,3.394v0.034c0,0,0.176,0.176,0.422,0.612l2.564,4.635h-2.529
				l-2.478-4.635h-2.178v4.635h-2.266L392.155,518.768L392.155,518.768z"/>
		</g>
	</g>
	<polygon fill="#231F20" points="408.696,518.768 408.696,520.709 412.789,520.709 412.789,531.186 415.054,531.186 
		415.054,520.709 419.146,520.709 419.146,518.768 	"/>
	<g>
		<g>
			<defs>
				<rect id="SVGID_73_" x="132.66" y="256.61" width="417.032" height="274.786"/>
			</defs>
			<clipPath id="SVGID_74_">
				<use xlink:href="#SVGID_73_"  overflow="visible"/>
			</clipPath>
			<path clip-path="url(#SVGID_74_)" fill="#231F20" d="M442.062,520.92c0,0-0.28,1.224-0.527,1.923l-1.106,3.323h3.269
				l-1.105-3.323c-0.229-0.699-0.493-1.923-0.493-1.923H442.062z M444.257,528.003h-4.373l-1.054,3.183h-2.337l4.392-12.419h2.37
				l4.393,12.419h-2.336L444.257,528.003z"/>
		</g>
		<g>
			<defs>
				<rect id="SVGID_75_" x="132.66" y="256.61" width="417.032" height="274.786"/>
			</defs>
			<clipPath id="SVGID_76_">
				<use xlink:href="#SVGID_75_"  overflow="visible"/>
			</clipPath>
			<path clip-path="url(#SVGID_76_)" fill="#231F20" d="M460.044,524.593c1.212,0,1.968-0.717,1.968-1.959
				c0-1.189-0.511-1.925-2.282-1.925h-1.723v3.884H460.044z M455.742,518.768h4.021c1.353,0,1.968,0.105,2.511,0.351
				c1.248,0.56,2.039,1.748,2.039,3.393c0,1.486-0.791,2.868-2.108,3.394v0.034c0,0,0.176,0.176,0.421,0.612l2.564,4.635h-2.529
				l-2.477-4.635h-2.178v4.635h-2.266L455.742,518.768L455.742,518.768z"/>
		</g>
	</g>
	<polygon fill="#231F20" points="472.284,518.768 472.284,520.709 476.375,520.709 476.375,531.186 478.642,531.186 
		478.642,520.709 482.733,520.709 482.733,518.768 	"/>
</g>
<g>
	<path d="M710.813,520.309v15.069c0,0.119-0.097,0.215-0.215,0.215h-1.58c-0.73,0-1.412-0.37-1.809-0.982l-7.113-10.996l0.244,5.491
		v6.271c0,0.119-0.098,0.215-0.216,0.215h-2.071c-0.119,0-0.215-0.096-0.215-0.215v-15.069c0-0.118,0.096-0.215,0.215-0.215h1.561
		c0.729,0,1.408,0.37,1.806,0.982l7.114,10.975l-0.223-5.469v-6.271c0-0.119,0.097-0.216,0.216-0.216h2.071
		C710.718,520.094,710.813,520.19,710.813,520.309"/>
	<path d="M732,535.593h-2.195c-0.149,0-0.255-0.151-0.2-0.293l5.809-15c0.048-0.124,0.168-0.206,0.301-0.206h2.746
		c0.133,0,0.253,0.082,0.301,0.206l5.809,15c0.055,0.142-0.051,0.293-0.2,0.293h-2.195c-0.089,0-0.169-0.055-0.201-0.139
		l-4.684-12.35c-0.07-0.186-0.332-0.186-0.402,0l-4.684,12.35C732.169,535.538,732.09,535.593,732,535.593"/>
	<path d="M759.791,535.245l-4.354-5.564c2.457-0.465,3.896-2.125,3.896-4.672c0-2.923-1.904-4.915-5.271-4.915h-6.075
		c-0.179,0-0.322,0.146-0.322,0.323c0,1.142,0.926,2.068,2.067,2.068h4.064c2.037,0,3.012,1.041,3.012,2.547
		c0,1.505-0.953,2.567-3.012,2.567h-5.811c-0.178,0-0.322,0.146-0.322,0.323v7.455c0,0.119,0.096,0.215,0.215,0.215h2.072
		c0.119,0,0.215-0.096,0.215-0.215v-5.564h2.391l3.783,4.936c0.406,0.532,1.039,0.844,1.708,0.844h1.573
		C759.801,535.593,759.901,535.386,759.791,535.245"/>
	<path d="M725.442,520.094h-9.616c-0.158,0-0.287,0.129-0.287,0.288c0,1.162,0.94,2.104,2.104,2.104h7.801
		c0.119,0,0.215-0.097,0.215-0.216v-1.961C725.658,520.19,725.563,520.094,725.442,520.094 M725.442,533.202h-7.187
		c-0.119,0-0.216-0.097-0.216-0.215V529.1c0-0.118,0.097-0.215,0.216-0.215h6.633c0.118,0,0.216-0.096,0.216-0.215v-1.961
		c0-0.119-0.098-0.215-0.216-0.215h-9.028c-0.178,0-0.321,0.144-0.321,0.323v8.454c0,0.179,0.146,0.323,0.321,0.323h9.582
		c0.119,0,0.216-0.096,0.216-0.215v-1.961C725.658,533.298,725.563,533.202,725.442,533.202"/>
	<path d="M682.408,516.239l-5.4,8.016c-0.375,0.557,0.345,1.194,0.853,0.755l5.315-4.606c0.14-0.121,0.356-0.022,0.356,0.162V535
		c0,0.201-0.252,0.292-0.381,0.138l-16.063-19.235c-0.522-0.618-1.291-0.976-2.101-0.976h-0.563c-1.52,0-2.752,1.232-2.752,2.753
		v20.327c0,1.521,1.232,2.752,2.752,2.752c0.957,0,1.846-0.497,2.346-1.312l5.401-8.017c0.374-0.556-0.345-1.192-0.853-0.755
		l-5.316,4.607c-0.139,0.121-0.355,0.021-0.355-0.162v-14.435c0-0.201,0.252-0.293,0.382-0.139l16.063,19.236
		c0.523,0.618,1.291,0.975,2.103,0.975h0.561c1.52,0,2.752-1.231,2.752-2.752V517.68c0-1.52-1.232-2.753-2.752-2.753
		C683.797,514.927,682.908,515.424,682.408,516.239"/>
</g>
</svg>
